:FULLY-SPECIFIED
:FORCE-ALL-JOINTS-BE-3DOF
:DEGREES
3058
root -0.798378 16.0534 -31.506 1136.14 -18.5467 -56.5511
lfemur -26.6209 11.7872 -7.56463
ltibia 42.1555 0 0
lfoot -9.53311 6.88342 0
ltoes -31.7904 0 0
rfemur -21.9412 -6.34352 18.3599
rtibia 51.9003 0 0
rfoot -18.743 -19.7662 0
rtoes -16.9606 0 0
lowerback 9.14178 3.25428 -0.180483
upperback -3.83747 4.53123 1.7183
thorax -9.31907 2.23617 1.00332
lowerneck -5.19975 -0.0776776 -4.10615
upperneck 10.8382 -0.21084 4.38645
head 4.50725 -0.028191 1.90335
lclavicle 1.40748e-14 3.20955e-15 0
lhumerus -23.0412 -0.585513 89.681
lradius 50.5294 0 0
lwrist -19.0839 0 0
lhand -35.9397 390.358 0
lfingers 7.12502 0 0
lthumb -9.0504 -659.883 0
rclavicle 1.40748e-14 3.20955e-15 0
rhumerus -43.8304 20.6439 -90.4337
rradius 60.8576 0 0
rwrist -28.0842 0 0
rhand -11.0979 -392.444 0
rfingers 7.12502 0 0
rthumb 14.9057 298.388 0
3059
root -0.785652 16.0589 -31.5165 1135.82 -18.4165 -56.2138
lfemur -26.5513 11.7006 -7.57346
ltibia 42.1144 0 0
lfoot -9.5808 6.90857 0
ltoes -31.8435 0 0
rfemur -21.9159 -6.30443 18.3593
rtibia 51.8126 0 0
rfoot -18.7013 -19.7614 0
rtoes -16.9663 0 0
lowerback 9.12239 3.24597 -0.18473
upperback -3.8411 4.51938 1.71881
thorax -9.31189 2.23095 1.00982
lowerneck -5.20616 -0.10816 -4.12713
upperneck 10.8475 -0.251204 4.39724
head 4.51131 -0.0482616 1.90825
lclavicle 1.41902e-14 3.2866e-15 0
lhumerus -23.0828 -0.627099 89.6834
lradius 50.3828 0 0
lwrist -19.0876 0 0
lhand -35.924 390.363 0
lfingers 7.12502 0 0
lthumb -9.03524 -659.878 0
rclavicle 1.41902e-14 3.2866e-15 0
rhumerus -43.7726 20.5566 -90.3711
rradius 60.6901 0 0
rwrist -27.8875 0 0
rhand -11.1419 -392.46 0
rfingers 7.12502 0 0
rthumb 14.8635 298.368 0
3060
root -0.77294 16.0645 -31.5269 1135.49 -18.2865 -55.8769
lfemur -26.4818 11.614 -7.58228
ltibia 42.0733 0 0
lfoot -9.62844 6.9337 0
ltoes -31.8964 0 0
rfemur -21.8905 -6.26539 18.3588
rtibia 51.725 0 0
rfoot -18.6596 -19.7566 0
rtoes -16.9719 0 0
lowerback 9.10304 3.23767 -0.188972
upperback -3.84472 4.50754 1.71932
thorax -9.30473 2.22573 1.01631
lowerneck -5.21256 -0.138603 -4.14808
upperneck 10.8567 -0.291516 4.40802
head 4.51536 -0.0683059 1.91314
lclavicle 1.43055e-14 3.36357e-15 0
lhumerus -23.1242 -0.668652 89.6857
lradius 50.2365 0 0
lwrist -19.0914 0 0
lhand -35.9083 390.367 0
lfingers 7.12502 0 0
lthumb -9.0201 -659.873 0
rclavicle 1.43055e-14 3.36357e-15 0
rhumerus -43.7149 20.4695 -90.3086
rradius 60.5228 0 0
rwrist -27.691 0 0
rhand -11.1858 -392.476 0
rfingers 7.12502 0 0
rthumb 14.8213 298.347 0
3061
root -0.760244 16.07 -31.5374 1135.16 -18.1566 -55.5405
lfemur -26.4124 11.5276 -7.59109
ltibia 42.0323 0 0
lfoot -9.67602 6.9588 0
ltoes -31.9493 0 0
rfemur -21.8653 -6.22641 18.3582
rtibia 51.6374 0 0
rfoot -18.618 -19.7518 0
rtoes -16.9775 0 0
lowerback 9.08372 3.22938 -0.19321
upperback -3.84834 4.49572 1.71983
thorax -9.29758 2.22053 1.0228
lowerneck -5.21894 -0.169006 -4.16901
upperneck 10.8659 -0.331775 4.41878
head 4.51941 -0.0883238 1.91802
lclavicle 1.44207e-14 3.44044e-15 0
lhumerus -23.1656 -0.710172 89.688
lradius 50.0903 0 0
lwrist -19.0952 0 0
lhand -35.8926 390.372 0
lfingers 7.12502 0 0
lthumb -9.00497 -659.867 0
rclavicle 1.44207e-14 3.44044e-15 0
rhumerus -43.6572 20.3825 -90.2461
rradius 60.3557 0 0
rwrist -27.4947 0 0
rhand -11.2296 -392.493 0
rfingers 7.12502 0 0
rthumb 14.7792 298.327 0
3062
root -0.747562 16.0756 -31.5478 1134.83 -18.027 -55.2046
lfemur -26.3431 11.4414 -7.5999
ltibia 41.9914 0 0
lfoot -9.72353 6.98387 0
ltoes -32.0022 0 0
rfemur -21.84 -6.18748 18.3577
rtibia 51.55 0 0
rfoot -18.5764 -19.7469 0
rtoes -16.9831 0 0
lowerback 9.06442 3.22109 -0.197443
upperback -3.85195 4.48391 1.72033
thorax -9.29043 2.21533 1.02928
lowerneck -5.22533 -0.199368 -4.18991
upperneck 10.8751 -0.371979 4.42953
head 4.52345 -0.108315 1.9229
lclavicle 1.45358e-14 3.51723e-15 0
lhumerus -23.2069 -0.751658 89.6903
lradius 49.9443 0 0
lwrist -19.0989 0 0
lhand -35.8769 390.377 0
lfingers 7.12502 0 0
lthumb -8.98987 -659.862 0
rclavicle 1.45358e-14 3.51723e-15 0
rhumerus -43.5996 20.2956 -90.1837
rradius 60.1888 0 0
rwrist -27.2986 0 0
rhand -11.2734 -392.509 0
rfingers 7.12502 0 0
rthumb 14.7371 298.307 0
3063
root -0.734897 16.0811 -31.5582 1134.51 -17.8975 -54.869
lfemur -26.2739 11.3552 -7.6087
ltibia 41.9505 0 0
lfoot -9.77098 7.00891 0
ltoes -32.055 0 0
rfemur -21.8148 -6.1486 18.3572
rtibia 51.4627 0 0
rfoot -18.5348 -19.7421 0
rtoes -16.9887 0 0
lowerback 9.04515 3.21282 -0.201671
upperback -3.85555 4.47211 1.72084
thorax -9.2833 2.21013 1.03575
lowerneck -5.2317 -0.229688 -4.21078
upperneck 10.8843 -0.412129 4.44026
head 4.52748 -0.128279 1.92777
lclavicle 1.46507e-14 3.59393e-15 0
lhumerus -23.2481 -0.793108 89.6926
lradius 49.7985 0 0
lwrist -19.1027 0 0
lhand -35.8613 390.381 0
lfingers 7.12502 0 0
lthumb -8.97478 -659.857 0
rclavicle 1.46507e-14 3.59393e-15 0
rhumerus -43.542 20.2088 -90.1213
rradius 60.0222 0 0
rwrist -27.1028 0 0
rhand -11.3171 -392.525 0
rfingers 7.12502 0 0
rthumb 14.6951 298.286 0
3064
root -0.722247 16.0866 -31.5686 1134.18 -17.7682 -54.534
lfemur -26.2048 11.2691 -7.61749
ltibia 41.9097 0 0
lfoot -9.81837 7.03392 0
ltoes -32.1077 0 0
rfemur -21.7896 -6.10977 18.3566
rtibia 51.3756 0 0
rfoot -18.4934 -19.7373 0
rtoes -16.9943 0 0
lowerback 9.02591 3.20456 -0.205895
upperback -3.85915 4.46033 1.72134
thorax -9.27617 2.20494 1.04221
lowerneck -5.23806 -0.259967 -4.23162
upperneck 10.8934 -0.452223 4.45097
head 4.53151 -0.148215 1.93263
lclavicle 1.47655e-14 3.67054e-15 0
lhumerus -23.2892 -0.834521 89.6948
lradius 49.653 0 0
lwrist -19.1065 0 0
lhand -35.8457 390.386 0
lfingers 7.12502 0 0
lthumb -8.95971 -659.851 0
rclavicle 1.47655e-14 3.67054e-15 0
rhumerus -43.4844 20.1222 -90.059
rradius 59.8558 0 0
rwrist -26.9073 0 0
rhand -11.3607 -392.541 0
rfingers 7.12502 0 0
rthumb 14.6531 298.266 0
3065
root -0.709613 16.0921 -31.5789 1133.85 -17.6391 -54.1994
lfemur -26.1358 11.1831 -7.62627
ltibia 41.869 0 0
lfoot -9.8657 7.0589 0
ltoes -32.1603 0 0
rfemur -21.7645 -6.071 18.3561
rtibia 51.2885 0 0
rfoot -18.4519 -19.7324 0
rtoes -16.9998 0 0
lowerback 9.00669 3.19631 -0.210113
upperback -3.86274 4.44857 1.72185
thorax -9.26905 2.19976 1.04867
lowerneck -5.24441 -0.290204 -4.25244
upperneck 10.9026 -0.492262 4.46168
head 4.53553 -0.168124 1.93749
lclavicle 1.48802e-14 3.74706e-15 0
lhumerus -23.3302 -0.875896 89.697
lradius 49.5076 0 0
lwrist -19.1102 0 0
lhand -35.8301 390.39 0
lfingers 7.12502 0 0
lthumb -8.94466 -659.846 0
rclavicle 1.48802e-14 3.74706e-15 0
rhumerus -43.427 20.0357 -89.9968
rradius 59.6896 0 0
rwrist -26.712 0 0
rhand -11.4043 -392.557 0
rfingers 7.12502 0 0
rthumb 14.6112 298.246 0
